name Walk5.mot
datacolumns 19
datarows 27
range 2.35200000 2.37800000
endheader

                time	   L_ground_force_vx	   L_ground_force_vy	   L_ground_force_vz	   L_ground_force_px	   L_ground_force_py	   L_ground_force_pz	   R_ground_force_vx	   R_ground_force_vy	   R_ground_force_vz	   R_ground_force_px	   R_ground_force_py	   R_ground_force_pz	   L_ground_torque_x	   L_ground_torque_y	   L_ground_torque_z	   R_ground_torque_x	   R_ground_torque_y	   R_ground_torque_z	
          2.35200000	          0.00000000	          0.00000000	          0.00000000	          0.00000000	          0.00000000	          0.00000000	         35.18990065	        163.12367227	         14.18670376	          0.25863598	          0.00000000	          0.06147064	          0.00000000	          0.00000000	          0.00000000	          0.00000000	         -8.60965997	          0.00000000	
          2.35300000	          0.00000000	          0.00000000	          0.00000000	          0.00000000	          0.00000000	          0.00000000	         32.52188627	        153.32187440	         13.84233360	          0.25883556	          0.00000000	          0.06135761	          0.00000000	          0.00000000	          0.00000000	          0.00000000	         -8.13252808	          0.00000000	
          2.35400000	          0.00000000	          0.00000000	          0.00000000	          0.00000000	          0.00000000	          0.00000000	         30.12667465	        143.56310660	         13.47109190	          0.25869418	          0.00000000	          0.06148435	          0.00000000	          0.00000000	          0.00000000	          0.00000000	         -7.73108093	          0.00000000	
          2.35500000	          0.00000000	          0.00000000	          0.00000000	          0.00000000	          0.00000000	          0.00000000	         27.96569810	        133.89854510	         13.04962547	          0.25860503	          0.00000000	          0.06181483	          0.00000000	          0.00000000	          0.00000000	          0.00000000	         -7.36996843	          0.00000000	
          2.35600000	          0.00000000	          0.00000000	          0.00000000	          0.00000000	          0.00000000	          0.00000000	         25.98070265	        124.36889577	         12.56010202	          0.25886921	          0.00000000	          0.06218453	          0.00000000	          0.00000000	          0.00000000	          0.00000000	         -7.01091371	          0.00000000	
          2.35700000	          0.00000000	          0.00000000	          0.00000000	          0.00000000	          0.00000000	          0.00000000	         24.12167746	        114.98674509	         12.01675295	          0.25953650	          0.00000000	          0.06240741	          0.00000000	          0.00000000	          0.00000000	          0.00000000	         -6.63985387	          0.00000000	
          2.35800000	          0.00000000	          0.00000000	          0.00000000	          0.00000000	          0.00000000	          0.00000000	         22.34073533	        105.78561541	         11.44263217	          0.26051246	          0.00000000	          0.06240147	          0.00000000	          0.00000000	          0.00000000	          0.00000000	         -6.26353207	          0.00000000	
          2.35900000	          0.00000000	          0.00000000	          0.00000000	          0.00000000	          0.00000000	          0.00000000	         20.60518094	         96.84900367	         10.85691812	          0.26169500	          0.00000000	          0.06223447	          0.00000000	          0.00000000	          0.00000000	          0.00000000	         -5.89637770	          0.00000000	
          2.36000000	          0.00000000	          0.00000000	          0.00000000	          0.00000000	          0.00000000	          0.00000000	         18.90826580	         88.28565861	         10.27712550	          0.26301783	          0.00000000	          0.06209585	          0.00000000	          0.00000000	          0.00000000	          0.00000000	         -5.54648123	          0.00000000	
          2.36100000	          0.00000000	          0.00000000	          0.00000000	          0.00000000	          0.00000000	          0.00000000	         17.25822396	         80.18822453	          9.70614047	          0.26446298	          0.00000000	          0.06217177	          0.00000000	          0.00000000	          0.00000000	          0.00000000	         -5.20493834	          0.00000000	
          2.36200000	          0.00000000	          0.00000000	          0.00000000	          0.00000000	          0.00000000	          0.00000000	         15.66282846	         72.60764989	          9.12681432	          0.26597776	          0.00000000	          0.06246187	          0.00000000	          0.00000000	          0.00000000	          0.00000000	         -4.85251451	          0.00000000	
          2.36300000	          0.00000000	          0.00000000	          0.00000000	          0.00000000	          0.00000000	          0.00000000	         14.11212019	         65.57808057	          8.51505241	          0.26738739	          0.00000000	          0.06273964	          0.00000000	          0.00000000	          0.00000000	          0.00000000	         -4.47713890	          0.00000000	
          2.36400000	          0.00000000	          0.00000000	          0.00000000	          0.00000000	          0.00000000	          0.00000000	         12.56951662	         59.16101321	          7.84995931	          0.26854820	          0.00000000	          0.06271776	          0.00000000	          0.00000000	          0.00000000	          0.00000000	         -4.07987724	          0.00000000	
          2.36500000	          0.00000000	          0.00000000	          0.00000000	          0.00000000	          0.00000000	          0.00000000	         10.99577909	         53.43256091	          7.11753888	          0.26956003	          0.00000000	          0.06228307	          0.00000000	          0.00000000	          0.00000000	          0.00000000	         -3.66845338	          0.00000000	
          2.36600000	          0.00000000	          0.00000000	          0.00000000	          0.00000000	          0.00000000	          0.00000000	          9.38549632	         48.43286749	          6.31816419	          0.27070655	          0.00000000	          0.06165667	          0.00000000	          0.00000000	          0.00000000	          0.00000000	         -3.25306238	          0.00000000	
          2.36700000	          0.00000000	          0.00000000	          0.00000000	          0.00000000	          0.00000000	          0.00000000	          7.76768385	         44.14016774	          5.47002894	          0.27223955	          0.00000000	          0.06133196	          0.00000000	          0.00000000	          0.00000000	          0.00000000	         -2.84581135	          0.00000000	
          2.36800000	          0.00000000	          0.00000000	          0.00000000	          0.00000000	          0.00000000	          0.00000000	          6.17551419	         40.47777329	          4.59678391	          0.27428008	          0.00000000	          0.06174813	          0.00000000	          0.00000000	          0.00000000	          0.00000000	         -2.45741702	          0.00000000	
          2.36900000	          0.00000000	          0.00000000	          0.00000000	          0.00000000	          0.00000000	          0.00000000	          4.63072002	         37.33716239	          3.71780731	          0.27690638	          0.00000000	          0.06294540	          0.00000000	          0.00000000	          0.00000000	          0.00000000	         -2.09324317	          0.00000000	
          2.37000000	          0.00000000	          0.00000000	          0.00000000	          0.00000000	          0.00000000	          0.00000000	          3.14962131	         34.60687659	          2.85242124	          0.28029311	          0.00000000	          0.06452347	          0.00000000	          0.00000000	          0.00000000	          0.00000000	         -1.75249989	          0.00000000	
          2.37100000	          0.00000000	          0.00000000	          0.00000000	          0.00000000	          0.00000000	          0.00000000	          1.74813004	         32.18547061	          2.01735413	          0.28450498	          0.00000000	          0.06587721	          0.00000000	          0.00000000	          0.00000000	          0.00000000	         -1.42999550	          0.00000000	
          2.37200000	          0.00000000	          0.00000000	          0.00000000	          0.00000000	          0.00000000	          0.00000000	          0.44195611	         29.97262959	          1.21883570	          0.28911346	          0.00000000	          0.06654419	          0.00000000	          0.00000000	          0.00000000	          0.00000000	         -1.11972052	          0.00000000	
          2.37300000	          0.00000000	          0.00000000	          0.00000000	          0.00000000	          0.00000000	          0.00000000	         -0.75304050	         27.86845713	          0.45855245	          0.29340783	          0.00000000	          0.06649293	          0.00000000	          0.00000000	          0.00000000	          0.00000000	         -0.82041006	          0.00000000	
          2.37400000	          0.00000000	          0.00000000	          0.00000000	          0.00000000	          0.00000000	          0.00000000	         -1.81812520	         25.77690210	         -0.25501584	          0.29697490	          0.00000000	          0.06606952	          0.00000000	          0.00000000	          0.00000000	          0.00000000	         -0.53839634	          0.00000000	
          2.37500000	          0.00000000	          0.00000000	          0.00000000	          0.00000000	          0.00000000	          0.00000000	         -2.72597296	         23.60275318	         -0.90260200	          0.29998453	          0.00000000	          0.06583227	          0.00000000	          0.00000000	          0.00000000	          0.00000000	         -0.28344895	          0.00000000	
          2.37600000	          0.00000000	          0.00000000	          0.00000000	          0.00000000	          0.00000000	          0.00000000	         -3.44262518	         21.26637796	         -1.45477694	          0.30303610	          0.00000000	          0.06661198	          0.00000000	          0.00000000	          0.00000000	          0.00000000	         -0.06418204	          0.00000000	
          2.37700000	          0.00000000	          0.00000000	          0.00000000	          0.00000000	          0.00000000	          0.00000000	         -3.94222281	         18.73862677	         -1.88053763	          0.30687054	          0.00000000	          0.06942817	          0.00000000	          0.00000000	          0.00000000	          0.00000000	          0.11280620	          0.00000000	
          2.37800000	          0.00000000	          0.00000000	          0.00000000	          0.00000000	          0.00000000	          0.00000000	         -4.22869339	         16.12342554	         -2.16874756	          0.31242517	          0.00000000	          0.07519070	          0.00000000	          0.00000000	          0.00000000	          0.00000000	          0.24632603	          0.00000000	
